<?xml version="1.0" encoding="UTF-8"?>
<svg id="_レイヤー_2" data-name="レイヤー 2" xmlns="http://www.w3.org/2000/svg" viewBox="0 0 1107.04 232.01">
  <defs>
    <style>
      .cls-1 {
        fill: #ff931e;
      }

      .cls-2 {
        fill: #3fa9f5;
      }

      .cls-3 {
        fill: #7ac943;
      }
    </style>
  </defs>
  <g id="_太くアウトライン" data-name="太くアウトライン">
    <rect class="cls-1" x="603" y="202" width="30" height="30"/>
    <path class="cls-3" d="M853,232c-13.68,0-31.38-1.19-46.95-10.5-24.84-14.85-30.05-42.19-30.05-62.5,0-11.82,0-29.69,10.31-45.58,12.27-18.91,35.06-28.59,67.76-28.78.28,0,.56,0,.84,0,24.58,0,43.24,6.16,55.47,18.33,12.64,12.57,13.62,26.93,13.62,31.03,0,24.16-15.51,41.82-36.88,42-16.07.13-39.92,0-62.29,0-7.84,0-12.43-1.95-17.84-3,4.68,22.86,21.62,29,46,29,13.93,0,24.32-2.47,30.52-3.95,13.24-3.15,18.68-13.98,18.9-14.43l-.09.19,27.32,12.39c-4.1,9.04-16.96,25.75-39.19,31.04-7,1.67-20.02,4.77-37.47,4.77ZM806.81,143.18c5.14,1.33,12.06,2.75,18.35,2.82,22.12.24,45.77.13,61.72,0,6.92-.06,7.12-10.78,7.12-12,0-.05-.05-5.07-4.77-9.76-6.32-6.29-18.18-9.6-34.31-9.6-.23,0-.45,0-.68,0-21.95.12-36.34,5.21-42.76,15.1-2.58,3.98-3.95,8.64-4.67,13.44Z"/>
    <path class="cls-2" d="M397,0h-175v30h138.06c-.14.19-.27.37-.39.53-2.12,2.93-2.28,3.17-6.26,9.3-24.25,37.39-38.79,67.86-53.65,112.42-11.66,34.98-14.77,66.58-14.77,79.74h30c0-10.57,2.77-38.86,13.23-70.26,13.97-41.92,27.62-70.53,50.35-105.58q3.71-5.72,5.38-8.02c1.62-2.23,4.75-6.29,13.04-18.14V0Z"/>
  </g>
  <g id="_太く連結" data-name="太く連結">
    <path class="cls-2" d="M580.07,202c-7.16,0-18.84-15.6-18.84-27.93,0-24.76-.23-88.49-.23-89.13l-30,.11c0,.52.15,42.56.21,71.59-2.62,13.59-11.39,28.85-20.22,35.48-6.37,4.79-20.8,9.87-34.99,9.87-12.38,0-25.12-1.55-34.45-12.81-6.64-8.01-14.55-21.24-14.55-38.72v-65.46h-30v65.46c0,26.42,11.66,46.05,21.45,57.86,19.61,23.68,47.17,23.68,57.55,23.68,19.06,0,40.36-6.38,53.01-15.88,4.34-3.26,7.83-7.46,10.65-12.18,1.41,2.53,2.98,5,4.7,7.33,9.7,13.17,22.72,20.73,35.72,20.73h14.93v-30h-14.93Z"/>
    <rect class="cls-1" x="603" y="202" width="30" height="30"/>
    <path class="cls-3" d="M765.95,165.46c0-19.4-3.57-35.06-10.92-47.85-8.55-14.88-26.52-32.61-63.61-32.61-9.44,0-35.08,1.24-56.42,20-.69.61-1.35,1.23-2,1.86v-21.86h-30v110h30v-42.51c2.37-5.11,8.75-17.44,18.71-26.2,12.85-11.29,32.36-11.29,39.71-11.29,30.8,0,44.53,15.56,44.53,50.46,0,20.92.05,66.55.05,66.55l30-.03s-.05-45.61-.05-66.52Z"/>
    <path class="cls-3" d="M853,232c-13.68,0-31.38-1.19-46.95-10.5-24.84-14.85-30.05-42.19-30.05-62.5,0-11.82,0-29.69,10.31-45.58,12.27-18.91,35.06-28.59,67.76-28.78.28,0,.56,0,.84,0,24.58,0,43.24,6.16,55.47,18.33,12.64,12.57,13.62,26.93,13.62,31.03,0,24.16-15.51,41.82-36.88,42-16.07.13-39.92,0-62.29,0-7.84,0-12.43-1.95-17.84-3,4.68,22.86,21.62,29,46,29,13.93,0,24.32-2.47,30.52-3.95,13.24-3.15,18.68-13.98,18.9-14.43l-.09.19,27.32,12.39c-4.1,9.04-16.96,25.75-39.19,31.04-7,1.67-20.02,4.77-37.47,4.77ZM806.81,143.18c5.14,1.33,12.06,2.75,18.35,2.82,22.12.24,45.77.13,61.72,0,6.92-.06,7.12-10.78,7.12-12,0-.05-.05-5.07-4.77-9.76-6.32-6.29-18.18-9.6-34.31-9.6-.23,0-.45,0-.68,0-21.95.12-36.34,5.21-42.76,15.1-2.58,3.98-3.95,8.64-4.67,13.44Z"/>
    <path class="cls-3" d="M1106,12c-1.4-2.1-5.7-3.24-8-4-3-.99-8-2-16-1-4.96.62-17,6-22,9-4.29,2.57-10,8-11,9-3,3-6,8-6,8l-7-7c-2-2-8-5-13-7-2.94-1.17-8.54-2.5-14-3s-11.5-1-17-1c-4,0-9,0-11,4-1,2-.23,6.15,3,11,4,6,9.91,10.14,13,12,5,3,8,4,13,5s15.04.49,18,0c5.33-.89,10.64-2.56,11.77-2.93-.24,2.92-.73,7.4-1.73,13.43-.96,5.77-2.77,14.08-7.35,19.57-2.44,2.93-7.42,6.05-10.77,7.92h-26.71c-.03-17.81-.06-31.5-.06-33.03l-30,.07c0,.39.03,14.43.06,32.97h-25.22v30h25.25c.02,26.36.01,52.57-.1,59.77-.23,14.7,7.99,29.59,16.24,37.84,12.87,12.87,26.24,19.39,39.75,19.39,9.03,0,21.12-.86,34.57-7.58,8.94-4.47,18.54-14.2,22.26-18.18l-21.93-20.47c-4.26,4.56-10.57,10.23-13.74,11.82-7.33,3.67-13.76,4.42-21.15,4.42-5.11,0-11.7-3.77-18.54-10.61-3.65-3.65-7.54-10.87-7.45-16.16.11-7.44.12-33.78.1-60.23h73.75v-30h-36.07c1.65-1.28,3.19-2.66,4.37-4.08,5.51-6.61,7.58-15.97,8.65-22.43,1.14-6.83,1.64-11.76,1.86-14.8,2.78.67,7.06,1.68,10.18,2.31,3.92.78,13,0,21-2,5.9-1.48,12.65-4.38,17-8,6-5,8.39-7.78,10-11,3-6,4-10,2-13Z"/>
    <path class="cls-2" d="M217.16,108.12c-11.75-15.12-28.05-23.12-47.16-23.12-24.56,0-40.49,14.39-50.19,28.33-1.14-1.8-2.35-3.54-3.65-5.21-11.75-15.12-28.05-23.12-47.16-23.12-16.77,0-29.51,6.71-39,15.4v-15.4H0v147h30v-86.16c3.72-7.58,16.95-30.84,39-30.84,9.77,0,17.45,3.77,23.47,11.52,5.5,7.08,8.53,16.4,8.53,26.23v79.25h30v-79.25c0-2.13-.09-4.25-.27-6.36,3.31-6.91,16.63-31.39,39.27-31.39,9.77,0,17.45,3.77,23.47,11.52,5.5,7.08,8.53,16.4,8.53,26.23v79.25h30v-79.25c0-16.46-5.27-32.31-14.84-44.63Z"/>
    <path class="cls-2" d="M397,0h-175v30h138.06c-.14.19-.27.37-.39.53-2.12,2.93-2.28,3.17-6.26,9.3-24.25,37.39-38.79,67.86-53.65,112.42-11.66,34.98-14.77,66.58-14.77,79.74h30c0-10.57,2.77-38.86,13.23-70.26,13.97-41.92,27.62-70.53,50.35-105.58q3.71-5.72,5.38-8.02c1.62-2.23,4.75-6.29,13.04-18.14V0Z"/>
  </g>
</svg>