<?xml version="1.0" encoding="UTF-8" standalone="no"?>
<!DOCTYPE svg PUBLIC "-//W3C//DTD SVG 1.1//EN" "http://www.w3.org/Graphics/SVG/1.1/DTD/svg11.dtd">
<svg width="100%" height="100%" viewBox="0 0 63 47" version="1.1" xmlns="http://www.w3.org/2000/svg" xmlns:xlink="http://www.w3.org/1999/xlink" xml:space="preserve" xmlns:serif="http://www.serif.com/" style="fill-rule:evenodd;clip-rule:evenodd;stroke-linejoin:round;stroke-miterlimit:2;">
    <g transform="matrix(0.483304,0,0,0.485299,-370.185,-85.0197)">
        <g>
            <path d="M824.778,272.038L834.297,272.038C834.297,272.038 831.855,242.898 833.69,222.74C834.246,222.978 834.828,223.201 835.435,223.408C839.866,224.917 845.665,225.598 851.994,225.314C867.712,224.607 886.669,217.926 895.909,203.894C896.486,203.017 896.515,202.119 895.355,201.409C884.036,194.471 863.295,194.594 847.829,199.899C839.703,202.686 833.089,206.944 829.803,212.199C826.945,200.831 817.533,190.464 806.225,183.621C793.08,175.667 777.467,172.563 766.938,177.718C766.326,178.017 765.94,178.641 765.945,179.322C766.034,190.777 776.356,203.086 789.57,211.332C800.785,218.331 813.987,222.362 824.388,220.775C822.325,241.745 824.778,272.038 824.778,272.038Z" style="fill:#72b483;"/>
        </g>
    </g>
</svg>
